HIERARCHY
ROOT Hips
{
 OFFSET 0.000000 0.000000 0.000000
 CHANNELS 6 Xposition Yposition Zposition Yrotation Xrotation Zrotation
 JOINT Chest
 {
  OFFSET 0.000000 9.585900 0.002600
  CHANNELS 3 Yrotation Xrotation Zrotation
  JOINT Chest2
  {
   OFFSET 0.000000 9.601200 -0.005300
   CHANNELS 3 Yrotation Xrotation Zrotation
   JOINT Chest3
   {
    OFFSET 0.000000 9.561800 0.000000
    CHANNELS 3 Yrotation Xrotation Zrotation
    JOINT Chest4
    {
     OFFSET 0.000000 9.552100 0.000000
     CHANNELS 3 Yrotation Xrotation Zrotation
     JOINT Neck
     {
      OFFSET 0.000000 14.453000 0.000000
      CHANNELS 3 Yrotation Xrotation Zrotation
      JOINT Head
      {
       OFFSET 0.000000 8.936500 -0.011300
       CHANNELS 3 Yrotation Xrotation Zrotation
       End Site
       {
        OFFSET 0.000000 17.073600 -0.006000
       }
      }
     }
     JOINT RightCollar
     {
      OFFSET -2.921100 9.558500 0.000000
      CHANNELS 3 Yrotation Xrotation Zrotation
      JOINT RightShoulder
      {
       OFFSET -13.519700 0.000000 0.000000
       CHANNELS 3 Yrotation Xrotation Zrotation
       JOINT RightElbow
       {
        OFFSET 0.000000 -29.696600 0.000000
        CHANNELS 3 Yrotation Xrotation Zrotation
        JOINT RightWrist
        {
         OFFSET 0.000000 -24.004700 0.000000
         CHANNELS 3 Yrotation Xrotation Zrotation
         End Site
         {
          OFFSET 0.000000 -17.728500 0.000000
         }
        }
       }
      }
     }
     JOINT LeftCollar
     {
      OFFSET 2.921100 9.558500 0.000000
      CHANNELS 3 Yrotation Xrotation Zrotation
      JOINT LeftShoulder
      {
       OFFSET 13.519700 0.000000 0.000000
       CHANNELS 3 Yrotation Xrotation Zrotation
       JOINT LeftElbow
       {
        OFFSET 0.000000 -29.696600 0.000000
        CHANNELS 3 Yrotation Xrotation Zrotation
        JOINT LeftWrist
        {
         OFFSET 0.000000 -24.004700 0.000000
         CHANNELS 3 Yrotation Xrotation Zrotation
         End Site
         {
          OFFSET 0.000000 -17.728500 0.000000
         }
        }
       }
      }
     }
    }
   }
  }
 }
 JOINT RightHip
 {
  OFFSET -7.771700 -0.012900 -0.001300
  CHANNELS 3 Yrotation Xrotation Zrotation
  JOINT RightKnee
  {
   OFFSET 0.000000 -40.869800 0.001200
   CHANNELS 3 Yrotation Xrotation Zrotation
   JOINT RightAnkle
   {
    OFFSET 0.000000 -39.717900 0.002100
    CHANNELS 3 Yrotation Xrotation Zrotation
    JOINT RightToe
    {
     OFFSET 0.000000 -4.965400 11.033500
     CHANNELS 3 Yrotation Xrotation Zrotation
     End Site
     {
      OFFSET 0.000000 -1.423100 5.872300
     }
    }
   }
  }
 }
 JOINT LeftHip
 {
  OFFSET 7.771700 -0.012900 -0.001300
  CHANNELS 3 Yrotation Xrotation Zrotation
  JOINT LeftKnee
  {
   OFFSET 0.000000 -40.869800 0.001200
   CHANNELS 3 Yrotation Xrotation Zrotation
   JOINT LeftAnkle
   {
    OFFSET 0.000000 -39.717900 0.002100
    CHANNELS 3 Yrotation Xrotation Zrotation
    JOINT LeftToe
    {
     OFFSET 0.000000 -4.965400 11.033500
     CHANNELS 3 Yrotation Xrotation Zrotation
     End Site
     {
      OFFSET 0.000000 -1.423100 5.872300
     }
    }
   }
  }
 }
}
MOTION
Frames: 8
Frame Time: 0.008333
-193.729600 58.005182 28.700169 172.011522 -50.464366 -3.202434 5.161067 22.462532 3.523117 2.685464 12.867392 1.808461 3.441186 16.066715 2.372022 2.684868 12.867828 1.808656 1.640867 16.215110 1.872518 2.371662 -5.703730 2.902310 0.873242 4.869195 0.631956 -1.238047 -14.431491 -9.367727 -90.275453 -62.932033 129.450100 11.683987 13.022846 6.543904 -10.156509 1.448407 -1.330222 2.978906 -11.291574 14.617691 71.276087 -55.050750 -120.961808 -8.121737 9.097947 -13.565208 4.280492 -22.053191 0.184752 -37.581512 73.113691 -39.087145 5.754770 -12.428475 9.537765 0.021955 -0.123851 0.031076 -2.420919 -20.690269 11.716338 52.922415 79.530412 52.289011 4.487884 -15.899039 -16.310194 0.043006 0.113426 0.023000
-193.731589 58.005386 28.699326 172.010536 -50.457221 -3.197578 5.161041 22.458969 3.520096 2.686087 12.867106 1.808324 3.445360 16.068762 2.372852 2.686043 12.866968 1.808300 1.635756 16.210170 1.842840 2.375207 -5.718503 2.849194 0.869298 4.865534 0.632742 -1.225262 -14.417503 -9.365854 -90.316140 -62.940571 129.484156 11.711717 13.035043 6.516052 -10.153026 1.445385 -1.317326 2.991828 -11.273850 14.605009 71.272767 -55.066640 -120.950718 -8.135728 9.102632 -13.586168 4.284412 -22.060275 0.178924 -37.573291 73.119458 -39.078014 5.743524 -12.432831 9.536706 0.015409 -0.127180 0.026067 -2.417320 -20.696468 11.714165 52.920111 79.528388 52.282669 4.479654 -15.898523 -16.303308 0.043610 0.112512 0.021842
-193.733901 58.005902 28.698044 172.005129 -50.452434 -3.186878 5.165612 22.460912 3.521420 2.686420 12.867765 1.806439 3.445774 16.069848 2.370609 2.686444 12.867834 1.806495 1.627717 16.200762 1.813278 2.378298 -5.734900 2.796353 0.882148 4.857610 0.630476 -1.238083 -14.410779 -9.359802 -90.339763 -62.954906 129.506097 11.737678 13.041828 6.484684 -10.155710 1.437092 -1.309576 3.034708 -11.245297 14.594616 71.264993 -55.085786 -120.962284 -8.150956 9.103810 -13.604036 4.298190 -22.065475 0.169190 -37.581147 73.123840 -39.079494 5.734532 -12.439564 9.532438 0.014151 -0.126983 0.026551 -2.410733 -20.698986 11.707663 52.920952 79.525605 52.279802 4.475078 -15.899415 -16.300298 0.043138 0.112540 0.022272
-193.736582 58.006255 28.696724 172.003514 -50.446268 -3.176497 5.164816 22.461825 3.514614 2.686648 12.868277 1.805121 3.448122 16.078398 2.369896 2.684745 12.860080 1.804235 1.621947 16.191216 1.785346 2.379409 -5.752475 2.743656 0.883578 4.850519 0.633925 -1.233927 -14.403678 -9.360403 -90.384523 -62.969446 129.546656 11.762173 13.055265 6.451879 -10.150269 1.431973 -1.292342 3.051176 -11.232024 14.581281 71.259462 -55.093915 -120.963122 -8.163589 9.111670 -13.605440 4.304577 -22.072802 0.155988 -37.589577 73.129608 -39.085959 5.725260 -12.442799 9.531202 0.020720 -0.128267 0.027127 -2.402648 -20.703979 11.698738 52.921460 79.518007 52.273805 4.480654 -15.895857 -16.294294 0.045934 0.115011 0.021279
-193.739355 58.005707 28.696080 172.011317 -50.432723 -3.172814 5.157435 22.457339 3.509571 2.685368 12.868752 1.802547 3.446932 16.074104 2.367062 2.682392 12.865517 1.801531 1.618999 16.178674 1.757111 2.375256 -5.771300 2.692304 0.885437 4.842034 0.636573 -1.220243 -14.390384 -9.359405 -90.427095 -62.990178 129.581011 11.795684 13.062456 6.415206 -10.133630 1.425361 -1.280869 3.056938 -11.219462 14.574709 71.236199 -55.102400 -120.939980 -8.178374 9.110854 -13.611317 4.303895 -22.087103 0.141629 -37.602309 73.135978 -39.098704 5.727374 -12.450765 9.530050 0.020643 -0.127939 0.026946 -2.401762 -20.718842 11.690284 52.909475 79.517496 52.261032 4.476205 -15.893148 -16.291854 0.048888 0.114406 0.022755
-193.740783 58.005940 28.694995 172.017182 -50.425262 -3.174426 5.162151 22.464336 3.514085 2.681797 12.861678 1.801174 3.443137 16.069989 2.365641 2.684513 12.867952 1.802510 1.608921 16.167705 1.726035 2.365361 -5.791957 2.643507 0.888212 4.839157 0.632671 -1.208492 -14.367609 -9.345624 -90.536597 -63.033139 129.663387 11.815159 13.075968 6.389242 -10.132267 1.428386 -1.272535 3.062026 -11.221269 14.566568 71.196654 -55.112730 -120.885198 -8.191494 9.107346 -13.623206 4.301404 -22.094275 0.136309 -37.615168 73.140695 -39.110903 5.736677 -12.464100 9.524183 0.026581 -0.129089 0.025898 -2.403336 -20.726514 11.688117 52.901605 79.516692 52.251323 4.478208 -15.890548 -16.292280 0.045773 0.114320 0.025204
-193.741676 58.005892 28.694221 172.015834 -50.415938 -3.172826 5.163027 22.457793 3.513501 2.687469 12.869872 1.803085 3.442386 16.065378 2.363131 2.685853 12.867636 1.801929 1.596814 16.154219 1.701029 2.352524 -5.814444 2.595491 0.895042 4.831753 0.631818 -1.211706 -14.351520 -9.330497 -90.630601 -63.078853 129.731566 11.832689 13.090303 6.368128 -10.128026 1.437970 -1.245829 3.066820 -11.229963 14.543865 71.168107 -55.120715 -120.847600 -8.199481 9.099811 -13.637887 4.302623 -22.106417 0.135677 -37.633068 73.144807 -39.127353 5.733725 -12.466338 9.521113 0.031577 -0.130712 0.027663 -2.401767 -20.735802 11.687810 52.896754 79.517226 52.245690 4.480521 -15.890778 -16.290835 0.045548 0.114979 0.024595
-193.742352 58.005865 28.693461 172.006924 -50.407139 -3.165308 5.167881 22.450833 3.512559 2.687734 12.870086 1.803319 3.447749 16.067407 2.364508 2.688013 12.867695 1.802456 1.578843 16.142425 1.673559 2.339477 -5.837506 2.547467 0.896732 4.829414 0.625376 -1.218935 -14.348956 -9.319509 -90.693023 -63.115347 129.776890 11.825529 13.095026 6.359127 -10.134991 1.435308 -1.241135 3.084422 -11.217977 14.540766 71.147517 -55.127615 -120.825017 -8.211603 9.092829 -13.652838 4.309260 -22.116205 0.135349 -37.642021 73.145204 -39.134798 5.724211 -12.469696 9.520889 0.031801 -0.131143 0.025717 -2.395050 -20.744073 11.686290 52.893430 79.516875 52.243304 4.482149 -15.891667 -16.290341 0.045240 0.115702 0.023161
